<svg xmlns="http://www.w3.org/2000/svg" width="23.875" height="23.875" viewBox="0 0 23.875 23.875"><path d="M20.312,6.13h0a1.432,1.432,0,1,0,1.433,1.432A1.433,1.433,0,0,0,20.312,6.13ZM25.8,9.019a9.06,9.06,0,0,0-.549-2.9A5.9,5.9,0,0,0,23.87,4.005a5.611,5.611,0,0,0-2.113-1.373,8.715,8.715,0,0,0-2.9-.561C17.59,2,17.185,2,13.938,2s-3.653,0-4.918.072a8.714,8.714,0,0,0-2.9.561A5.706,5.706,0,0,0,4.006,4.005,5.611,5.611,0,0,0,2.633,6.118a8.714,8.714,0,0,0-.561,2.9C2,10.285,2,10.69,2,13.937s0,3.653.072,4.918a8.714,8.714,0,0,0,.561,2.9,5.611,5.611,0,0,0,1.373,2.113,5.706,5.706,0,0,0,2.113,1.373,8.714,8.714,0,0,0,2.9.561c1.265.072,1.671.072,4.918.072s3.653,0,4.918-.072a8.714,8.714,0,0,0,2.9-.561,5.611,5.611,0,0,0,2.113-1.373,5.79,5.79,0,0,0,1.385-2.113,9.061,9.061,0,0,0,.549-2.9c0-1.265.072-1.671.072-4.918S25.875,10.285,25.8,9.019Zm-2.149,9.693a6.7,6.7,0,0,1-.406,2.22,3.653,3.653,0,0,1-.9,1.373,3.808,3.808,0,0,1-1.373.9,6.7,6.7,0,0,1-2.22.406c-1.194.06-1.635.072-4.775.072s-3.581,0-4.775-.072a6.84,6.84,0,0,1-2.316-.358,3.9,3.9,0,0,1-1.313-.9A3.581,3.581,0,0,1,4.7,20.981a6.613,6.613,0,0,1-.478-2.268c0-1.194-.072-1.635-.072-4.775s0-3.581.072-4.775a6.613,6.613,0,0,1,.418-2.268,3.581,3.581,0,0,1,.943-1.313,3.748,3.748,0,0,1,1.313-.955A6.84,6.84,0,0,1,9.163,4.22c1.194,0,1.635-.072,4.775-.072s3.581,0,4.775.072a6.7,6.7,0,0,1,2.22.406,3.653,3.653,0,0,1,1.421.955,3.653,3.653,0,0,1,.9,1.313,6.7,6.7,0,0,1,.406,2.268c.06,1.194.072,1.635.072,4.775S23.714,17.519,23.655,18.712Zm-9.717-10.9A6.112,6.112,0,1,0,18.279,9.6,6.124,6.124,0,0,0,13.938,7.814Zm0,10.1a3.975,3.975,0,1,1,3.975-3.975,3.975,3.975,0,0,1-3.975,3.975Z" transform="translate(-2 -2)" fill="#bc8110"/></svg>